<svg width="278" height="70" viewBox="0 0 278 70" fill="none" xmlns="http://www.w3.org/2000/svg">
<g clip-path="url(#clip0_8844_14804)">
<path d="M98 48.1252V50.7502C96.8333 49.7293 95.375 49.146 93.9167 49.146C92.4583 49.146 91 49.7293 89.9792 50.7502C88.9583 51.771 88.375 53.2293 88.375 54.8335C88.375 56.2918 88.9583 57.7502 89.9792 58.771C91 59.7918 92.4583 60.3752 93.9167 60.3752C94.6458 60.3752 95.375 60.2293 95.9583 59.9377C96.25 59.7918 96.6875 59.646 96.9792 59.3543C97.4167 59.0627 97.7083 58.9168 98 58.6252V61.396C96.6875 62.1252 95.375 62.4168 93.9167 62.5627C89.6875 62.5627 86.1875 59.2085 86.1875 54.9793V54.8335C86.1875 52.9377 86.9167 51.1877 88.0833 49.7293C89.5417 47.9793 91.7292 46.9585 94.0625 46.9585C95.375 46.9585 96.6875 47.396 98 48.1252Z" fill="white"/>
<path d="M114.771 58.625H108.354L106.604 62.2708H104.125L111.562 46.375L118.708 62.2708H116.229L114.771 58.625ZM113.75 56.5833L111.562 51.4792L109.229 56.5833H113.75Z" fill="white"/>
<path d="M127.604 56.1458V62.2708H125.417V47.25H128.042C129.063 47.25 129.938 47.25 130.958 47.5417C131.542 47.6875 132.125 48.125 132.708 48.5625C133.583 49.4375 134.021 50.6042 134.021 51.7708C134.021 53.0833 133.583 54.25 132.708 54.9792C131.688 55.8542 130.375 56.2917 129.063 56.1458H127.604ZM127.604 54.1042H128.479C130.521 54.1042 131.542 53.375 131.542 51.7708C131.542 50.1667 130.521 49.4375 128.333 49.4375H127.604V54.1042Z" fill="white"/>
<path d="M143.208 47.25V62.2708H141.021V47.25H143.208Z" fill="white"/>
<path d="M155.75 49.4375V62.2708H153.417V49.4375H149.917V47.25H159.104V49.4375H155.75Z" fill="white"/>
<path d="M173.833 58.625H167.417L165.667 62.2708H163.333L170.771 46.375L177.917 62.2708H175.438L173.833 58.625ZM172.958 56.5833L170.771 51.4792L168.438 56.5833H172.958Z" fill="white"/>
<path d="M186.813 47.25V60.0833H191.188V62.2708H184.479V47.25H186.813Z" fill="white"/>
<path d="M51.0417 39.5208L57.0209 8.75L66.7917 30.9167L77.0001 8.75L82.3959 39.5208H78.0209L75.2501 22.1667L66.7917 40.8333L58.6251 22.1667L55.5626 39.5208H51.0417Z" fill="white"/>
<path d="M104.271 15.0208H92.7502V21.875H103.833V25.9583H92.7502V35.5833H104.271V39.6667H88.521V10.9375H104.271V15.0208Z" fill="white"/>
<path d="M114.333 22.3125L125.417 10.9375H131.25L118.271 23.9167L131.25 39.5208H125.417L115.208 26.8333L114.333 27.7083V39.5208H109.958V10.9375H114.333V22.3125Z" fill="white"/>
<path d="M167.417 39.521V8.896L188.271 30.771V10.9377H192.646V41.271L171.792 19.5418V39.521H167.417Z" fill="white"/>
<path d="M214.521 24.6457H226.333V25.5207C226.333 27.4165 226.042 29.3123 225.604 31.2082C225.021 32.8123 224.292 34.2707 223.125 35.5832C220.5 38.4998 216.854 40.2498 212.917 40.104C209.125 40.104 205.333 38.4998 202.708 35.729C199.938 32.9582 198.333 29.1665 198.333 25.229C198.333 21.2915 199.792 17.4998 202.708 14.729C205.479 11.8123 209.271 10.354 213.354 10.354C215.542 10.354 217.729 10.7915 219.625 11.6665C221.667 12.8332 223.563 14.2915 225.167 16.0415L222.104 18.9582C220.208 16.0415 217 14.2915 213.5 14.2915C210.583 14.1457 207.813 15.3123 205.917 17.354C203.875 19.3957 202.708 22.1665 202.854 25.0832C202.708 28.1457 204.021 30.9165 206.208 32.9582C208.104 34.854 210.583 35.8748 213.208 35.8748C215.25 35.8748 217.292 35.1457 218.896 33.6873C220.5 32.3748 221.521 30.479 221.813 28.4373H214.667L214.521 24.6457Z" fill="white"/>
<path d="M154 22.4585C154 22.4585 151.958 23.6251 155.021 24.5001C158.083 25.3751 162.896 27.8543 159.688 30.9168C156.771 33.5418 148.313 35.4376 144.229 40.8335C145.396 41.1251 146.563 41.271 147.875 41.271C156.625 41.271 163.625 34.271 163.625 25.521C163.625 24.0626 163.479 22.7501 163.042 21.4376C159.979 21.146 156.917 21.5835 154 22.4585Z" fill="#B70004"/>
<path d="M145.833 30.3334C153.417 29.8959 155.458 28.0001 152.25 26.3959C150.792 25.8126 149.333 24.9376 147.875 24.2084C146.563 23.3334 145.542 20.5626 162.313 18.9584C158.667 10.9376 149.333 7.43756 141.458 10.9376C133.583 14.4376 129.938 23.7709 133.438 31.7917C133.729 32.3751 134.021 33.1042 134.458 33.6876C137.958 31.7917 141.75 30.6251 145.833 30.3334Z" fill="#B70004"/>
</g>
<defs>
<clipPath id="clip0_8844_14804">
<rect width="175.292" height="53.8125" fill="white" transform="translate(51.0417 8.75)"/>
</clipPath>
</defs>
</svg>
